<svg width="240" height="45" viewBox="0 0 240 45" fill="none" xmlns="http://www.w3.org/2000/svg">
<path d="M59.582 11.104C62.5638 11.104 64.4741 13.5293 63.852 16.5278L60.3686 33.1273C60.322 33.6839 60.47 34.1828 60.8181 34.6265C61.1634 35.0702 61.6347 35.2935 62.2322 35.2935H69.7526L73.9486 16.5306C74.6119 13.5265 77.5554 11.104 80.5454 11.104C83.5629 11.104 85.4842 13.5706 84.8318 16.6049L78.7201 44.9561H68.8784L68.8455 44.9891H58.6064C55.6244 44.9891 53.2319 43.8344 51.4312 41.5248C49.6087 39.2373 48.9647 36.5613 49.5018 33.4939L53.0071 16.5746C53.6321 13.5568 56.581 11.104 59.582 11.104Z" fill="#363844"/>
<path d="M140.827 11.104H146.684C149.353 11.104 151.046 13.2923 150.457 15.9767C149.874 18.628 147.278 20.7665 144.642 20.7665H143.576C142.913 20.7665 142.312 21.0008 141.778 21.4665C141.262 21.9324 140.93 22.5222 140.777 23.2332L136.25 44.9919H125.514L130.544 20.4689C131.881 15.0037 135.31 11.8839 140.827 11.1068V11.104Z" fill="#363844"/>
<path d="M161.752 44.8568C158.542 44.6556 156.093 43.9363 154.403 42.6906C152.715 41.4477 151.416 39.7582 150.504 37.625C148.513 33.028 148.734 27.7972 151.161 21.9323C154.467 15.2462 160.113 11.6579 168.091 11.1701H176.638L177.992 5.28605C178.667 2.35366 181.542 0.00830078 184.457 0.00830078C187.375 0.00830078 189.301 2.41981 188.67 5.39078L184.146 26.7389C183.507 29.7539 180.56 32.1958 177.562 32.1958C174.565 32.1958 172.646 29.7429 173.29 26.7223L174.635 20.433H169.201C166.553 20.5213 164.434 21.2654 162.848 22.6654C161.259 23.9773 160.242 25.5757 159.797 27.4636C158.471 32.6394 160.085 35.2604 164.637 35.3266H177.62C180.226 35.3266 181.896 37.4432 181.356 40.0642L180.342 44.9892L161.749 44.8568H161.752Z" fill="#363844"/>
<path d="M233.776 34.9213H235.944C238.734 34.9213 240.499 37.2143 239.874 40.0172C239.258 42.7732 236.558 44.989 233.817 44.989H231.649C228.878 44.989 227.113 42.7235 227.711 39.9372C228.305 37.1619 231.02 34.9185 233.779 34.9185L233.776 34.9213Z" fill="#00E48A"/>
<path d="M122.431 40.6733C123.001 37.9724 121.493 35.7455 118.997 35.3597L122.201 19.8104C123.19 15.0122 120.134 11.1372 115.363 11.1372H104.77C96.7891 11.625 91.1461 15.2133 87.8409 21.8994C85.4125 27.7643 85.1933 32.9951 87.1831 37.5921C88.0957 39.7253 89.3948 41.412 91.083 42.6577C92.7713 43.9006 95.2188 44.6227 98.4308 44.8239L105.721 44.8762L117.023 44.9561L117.029 44.9342C118.528 44.9424 120.03 44.9507 121.529 44.9561L122.434 40.6733H122.431ZM101.317 35.2936C96.7644 35.2275 95.1502 32.6065 96.4767 27.4307C96.9206 25.5428 97.9375 23.9444 99.5271 22.6325C101.155 21.1884 103.35 20.4442 106.11 20.4001H111.246L110.539 23.9664H110.572L108.273 35.2963H101.314L101.317 35.2936Z" fill="#363844"/>
<path d="M220.632 35.3375C214.734 35.3375 208.837 35.3321 202.939 35.3293L217.45 20.3311C218.426 19.3224 219.099 18.0905 219.369 16.8227C220.037 13.6643 218.031 11.104 214.891 11.104H196.073C193.853 11.104 191.675 12.9119 191.203 15.1443C191.18 15.249 191.167 15.3482 191.156 15.4503C191.123 15.5632 191.09 15.679 191.066 15.7947C190.525 18.3495 192.148 20.4194 194.686 20.4194H201.773C202.292 20.4194 202.469 21.0063 202.081 21.4308L202.072 21.439L187.65 37.0683C186.99 37.7821 186.469 38.6089 186.193 39.4826C185.244 42.4674 187.031 44.9864 189.928 44.9864H223.068C223.45 43.2611 223.83 41.5358 224.208 39.8133C224.716 37.5148 222.975 35.3348 220.635 35.3321L220.632 35.3375Z" fill="#363844"/>
<path d="M46.5388 24.7902L44.4065 35.139H44.4148L42.0633 45L14.6101 44.8264C13.1629 44.7245 9.88509 44.4764 6.62369 41.3566C6.62369 41.3566 6.25095 40.9763 5.77956 40.3699C5.77956 40.3699 4.91351 39.2456 4.34619 38.0081C3.71035 36.6246 2.93473 34.2572 4.96558 29.8007C7.12796 25.0494 11.5377 22.0783 12.2667 22.6433C12.7683 23.0347 11.2088 24.7737 11.3651 28.0231C11.4116 29.0098 11.513 31.1015 13.0671 32.8653C13.2836 33.1106 14.7553 34.7339 17.1452 35.0812C17.6302 35.1528 18.0414 35.1528 18.3345 35.1418H33.4302L35.5187 25.0218C36.1653 21.8964 39.1884 19.3361 42.2662 19.3195H42.2991C42.9156 19.3195 43.4995 19.4216 44.0256 19.6255C44.6642 19.8652 45.2179 20.2539 45.6536 20.761C45.6893 20.8023 45.7276 20.8437 45.7605 20.885C46.5745 21.9185 46.854 23.302 46.547 24.793L46.5388 24.7902Z" fill="#363844"/>
<path d="M50.1776 5.71045C49.7966 7.51012 48.651 9.10585 47.1683 10.1421C46.0475 10.9276 44.7292 11.3906 43.4136 11.3768L24.8867 11.1921C22.8998 11.2776 21.2635 11.4898 20.1043 11.6745C16.4947 12.2505 12.2412 13.7663 7.53551 16.9219C6.50501 17.6247 5.06069 18.7436 3.61908 20.3835C1.65128 22.6213 0.815375 24.5505 0.294653 24.3686C-0.321999 24.1509 0.212433 21.0835 0.264506 20.7858C2.14186 10.2551 9.57457 4.69073 9.57457 4.69073C15.3026 0.402378 20.9209 0.0220481 23.2862 0L46.064 0.228749C47.4589 0.242528 48.6566 0.804754 49.4267 1.79967C50.2269 2.83318 50.4928 4.21945 50.1776 5.71045Z" fill="#363844"/>
</svg>
